<?xml version="1.0" standalone="no"?>
<!DOCTYPE svg PUBLIC "-//W3C//DTD SVG 20010904//EN"
 "http://www.w3.org/TR/2001/REC-SVG-20010904/DTD/svg10.dtd">
<svg version="1.0" xmlns="http://www.w3.org/2000/svg"
 width="180.000000pt" height="180.000000pt" viewBox="0 0 180.000000 180.000000"
 preserveAspectRatio="xMidYMid meet">
<metadata>
Created by potrace 1.11, written by Peter Selinger 2001-2013
</metadata>
<g transform="translate(0.000000,180.000000) scale(0.100000,-0.100000)"
fill="#000000" stroke="none">
<path d="M0 900 l0 -900 160 0 160 0 0 60 c0 67 -2 65 84 54 43 -6 46 -8 46
-38 0 -73 4 -76 91 -76 l78 0 -14 26 c-14 28 -13 31 23 116 21 47 53 75 73 62
6 -3 19 2 30 12 16 15 25 16 48 7 19 -7 34 -7 46 -1 25 15 63 -6 71 -37 5 -22
11 -25 28 -20 11 3 53 9 91 12 56 4 74 10 93 29 29 31 56 30 81 -2 22 -28 20
-39 -16 -96 -13 -21 -23 -49 -23 -62 0 -17 -8 -27 -27 -34 -22 -8 -3 -11 85
-11 l112 -1 0 55 c0 53 1 55 28 55 15 0 44 3 65 6 l37 7 0 -62 0 -61 175 0
175 0 0 900 0 900 -900 0 -900 0 0 -900z m1073 539 c45 -45 130 -113 196 -156
64 -43 117 -78 118 -78 1 0 -1 -12 -4 -27 -6 -34 -40 -43 -82 -22 -35 18 -35
18 -19 43 17 27 4 47 -44 72 -40 21 -46 21 -145 9 l-103 -13 -22 -46 c-12 -25
-21 -52 -21 -61 1 -12 -12 -15 -72 -15 l-73 0 -7 41 c-10 67 -38 89 -132 103
-71 12 -84 11 -114 -3 l-34 -17 30 22 c68 50 224 220 279 302 l58 88 56 -81
c30 -45 91 -118 135 -161z m-567 -189 c0 -11 -4 -20 -9 -20 -5 0 -6 -11 -3
-25 6 -22 1 -28 -39 -47 -24 -12 -47 -19 -50 -17 -2 3 -7 19 -10 35 -6 27 -2
31 52 60 32 17 58 32 58 33 1 0 1 -8 1 -19z m147 -97 c-7 -2 -21 -2 -30 0 -10
3 -4 5 12 5 17 0 24 -2 18 -5z m482 0 c-53 -7 -123 -34 -129 -49 -4 -11 0 -13
19 -8 21 5 25 3 25 -15 0 -31 44 -71 76 -71 37 0 74 36 74 72 0 15 4 28 9 28
21 0 41 -13 41 -27 0 -8 5 -11 11 -7 6 3 8 16 5 29 -4 16 -1 25 11 30 22 8 46
-23 39 -50 -3 -11 -6 -28 -6 -37 0 -36 -57 -53 -175 -53 -67 0 -118 5 -131 12
-11 6 -26 29 -32 51 -14 47 -15 75 -3 68 5 -4 11 -2 13 4 1 5 25 12 52 15 27
2 51 7 54 10 3 3 21 4 41 4 34 -2 34 -2 6 -6z m-634 -24 c-16 -59 -16 -56 6
-36 11 9 29 17 40 17 16 0 19 -5 16 -24 -7 -33 36 -76 73 -76 34 0 74 36 74
67 0 25 7 28 30 13 10 -6 21 -4 34 8 18 17 19 16 13 -23 -8 -49 -34 -72 -93
-81 -64 -9 -172 0 -216 19 -37 15 -38 18 -38 67 0 43 3 52 23 60 28 11 43 7
38 -11z m440 -39 c16 -102 57 -124 215 -118 128 6 164 23 177 85 7 39 37 69
37 38 0 -9 10 -15 26 -15 19 0 24 -4 20 -17 -2 -10 -19 -76 -36 -148 -48 -201
-70 -267 -103 -309 -46 -58 -167 -150 -254 -193 -63 -31 -88 -38 -137 -38 -53
0 -75 7 -171 54 -88 43 -123 67 -176 120 -66 66 -67 68 -108 196 -38 119 -81
290 -81 323 0 9 10 12 31 10 26 -2 33 -9 43 -38 16 -51 78 -71 213 -68 121 3
150 18 170 89 21 73 18 70 75 67 52 -3 53 -4 59 -38z m-647 -1 c14 -17 26 -39
26 -49 0 -10 2 -27 5 -37 3 -10 -2 -2 -11 17 -36 79 -93 106 -112 53 -6 -16
-11 -23 -11 -16 -1 6 3 23 9 37 14 38 60 36 94 -5z m1276 5 c6 -14 10 -31 9
-37 0 -7 -5 0 -11 16 -21 58 -80 24 -117 -68 -22 -56 -27 -51 -10 10 17 61 54
105 90 105 22 0 32 -6 39 -26z m-890 2 c-6 -8 -18 -12 -26 -9 -23 9 -16 23 12
23 22 0 24 -2 14 -14z m488 2 c-3 -7 -11 -13 -18 -13 -7 0 -15 6 -17 13 -3 7
4 12 17 12 13 0 20 -5 18 -12z m-912 -32 c18 -14 18 -15 2 -21 -27 -11 -22
-28 6 -21 32 8 45 -31 17 -51 -10 -7 -22 -24 -25 -38 -4 -14 -13 -25 -22 -25
-18 0 -8 -22 30 -62 19 -22 34 -28 64 -28 32 0 41 -4 45 -21 14 -51 -59 -25
-117 43 -37 43 -67 121 -65 167 2 24 2 24 6 4 8 -44 28 -25 25 22 -4 48 2 54
34 31z m1294 -31 c0 -47 15 -62 23 -22 4 20 4 20 6 -4 4 -74 -63 -190 -129
-224 -35 -18 -60 -11 -53 16 4 15 14 19 48 19 39 0 46 4 75 43 24 33 28 43 15
45 -8 2 -18 14 -21 27 -3 13 -14 31 -24 40 -26 23 -15 57 16 49 28 -7 33 10 7
21 -17 6 -17 7 1 21 31 22 36 17 36 -31z m-104 -110 c15 -23 15 -27 0 -50 -19
-29 -52 -35 -41 -7 4 9 9 32 12 50 3 17 7 32 9 32 2 0 11 -11 20 -25z m-1091
-42 c8 -40 -7 -44 -30 -9 -13 20 -14 29 -5 47 14 26 23 16 35 -38z m391 -507
c115 -55 158 -55 278 -2 62 28 74 18 32 -27 -32 -34 -83 -47 -189 -47 -118 0
-177 29 -177 86 0 18 -3 18 56 -10z"/>
<path d="M828 957 c-11 -12 -29 -45 -39 -72 l-19 -50 32 -27 c31 -26 32 -28
11 -29 -13 -1 -29 -2 -35 -3 -7 -1 -19 -8 -26 -16 -8 -8 -11 -9 -7 -2 10 19
-10 14 -30 -8 -20 -23 -13 -39 9 -21 11 9 15 9 20 -1 5 -10 7 -10 12 -1 4 10
11 10 26 2 15 -8 22 -8 28 1 6 9 9 9 13 -1 4 -9 6 -10 6 -2 1 7 7 10 15 7 9
-3 17 5 24 23 l10 28 11 -27 c11 -30 34 -39 24 -10 -5 16 -5 16 8 0 16 -21 79
-31 79 -14 0 6 4 5 9 -3 5 -7 13 -11 17 -8 5 3 15 -1 22 -9 7 -8 10 -14 6 -14
-3 0 -2 -6 3 -12 5 -7 8 -26 7 -43 -2 -17 4 -38 14 -50 16 -19 16 -19 0 -6
-15 11 -18 11 -18 0 1 -14 23 -49 32 -49 12 0 4 67 -10 83 -9 9 -10 17 -4 17
35 0 -27 115 -68 126 -35 9 -82 16 -105 15 -16 0 -14 3 9 18 35 23 17 38 -24
21 -21 -9 -34 -9 -49 0 -25 13 -25 11 -4 55 9 19 24 35 32 35 33 0 43 15 30
43 -15 33 -44 35 -71 4z"/>
<path d="M689 703 c-1 -5 -3 -17 -5 -28 -14 -82 -9 -100 17 -68 11 13 11 17 1
20 -6 3 -9 10 -5 16 11 18 14 67 3 67 -6 0 -11 -3 -11 -7z"/>
<path d="M544 665 c3 -9 6 -21 6 -26 0 -5 7 -9 16 -9 23 0 14 44 -10 48 -14 3
-17 0 -12 -13z"/>
<path d="M720 669 c0 -12 62 -19 165 -19 103 0 165 7 165 19 0 3 -74 6 -165 6
-91 0 -165 -3 -165 -6z"/>
<path d="M1143 654 c-3 -8 -1 -20 6 -27 13 -13 16 -10 25 21 6 16 3 22 -9 22
-8 0 -18 -7 -22 -16z"/>
<path d="M694 589 c-11 -18 -14 -79 -3 -79 4 0 6 -7 3 -15 -9 -23 14 -18 26 5
11 21 5 60 -10 60 -4 0 -6 9 -3 20 6 22 -2 27 -13 9z"/>
<path d="M810 594 c0 -3 5 -14 10 -25 20 -36 110 -21 110 18 0 9 -17 13 -60
13 -33 0 -60 -3 -60 -6z"/>
<path d="M1050 541 c12 -23 29 -35 37 -27 7 7 -26 46 -39 46 -5 0 -4 -9 2 -19z"/>
<path d="M870 513 c0 -25 16 -47 28 -39 5 3 12 -1 16 -9 3 -8 10 -15 15 -15 7
0 6 9 -1 25 -7 15 -17 24 -25 21 -8 -3 -13 2 -13 14 0 11 -4 20 -10 20 -5 0
-10 -8 -10 -17z"/>
<path d="M1010 515 c0 -6 7 -20 15 -31 11 -14 14 -15 15 -4 0 13 1 13 10 0 14
-23 22 -5 9 23 -11 25 -49 34 -49 12z"/>
<path d="M806 512 c-16 -27 -34 -103 -23 -99 6 2 17 23 24 48 13 44 13 73 -1
51z"/>
<path d="M969 503 c-1 -5 -1 -11 0 -15 0 -5 -6 -8 -14 -8 -12 0 -13 -4 -3 -25
14 -31 32 -33 23 -2 -4 15 -4 18 3 8 5 -7 15 -10 21 -7 6 4 11 2 11 -3 0 -6 4
-11 10 -11 15 0 -8 44 -31 58 -10 7 -20 9 -20 5z"/>
<path d="M721 482 c-7 -13 -11 -28 -8 -35 2 -7 9 -2 16 11 7 13 11 28 8 35 -2
7 -9 2 -16 -11z"/>
<path d="M755 479 c-4 -11 -4 -23 0 -27 7 -7 25 17 25 36 0 20 -18 14 -25 -9z"/>
<path d="M826 478 c-8 -32 -7 -38 4 -38 6 0 10 12 11 28 1 27 1 27 11 -5 13
-40 33 -44 23 -6 -11 45 -39 56 -49 21z"/>
<path d="M890 443 c0 -10 5 -25 10 -33 7 -11 10 -7 10 18 0 17 -4 32 -10 32
-5 0 -10 -8 -10 -17z"/>
<path d="M738 201 c-9 -15 -19 -18 -40 -14 -25 5 -29 1 -59 -60 -29 -58 -31
-69 -21 -92 10 -22 17 -26 37 -21 13 3 26 2 30 -3 3 -6 23 -9 44 -9 33 0 40 4
44 25 7 37 -3 63 -23 63 -18 0 -35 -25 -31 -47 1 -7 -3 -13 -9 -13 -5 0 -10 9
-10 20 0 11 -6 20 -12 20 -9 0 -10 2 -2 8 6 4 8 16 4 27 -7 19 -7 19 -17 0 -6
-11 -9 -25 -6 -31 2 -6 -3 -17 -12 -24 -11 -9 -15 -9 -15 -1 0 19 42 111 50
111 4 0 11 -15 14 -32 l7 -33 27 50 26 50 10 -47 c5 -27 12 -48 16 -48 3 0 16
20 28 46 12 25 26 43 31 39 5 -3 12 -24 16 -48 10 -58 14 -62 39 -39 26 25 57
31 64 13 3 -9 -1 -11 -16 -7 -17 6 -25 0 -41 -32 -15 -29 -17 -42 -8 -51 15
-15 42 -14 57 4 10 12 9 16 -3 21 -9 3 -21 2 -28 -2 -7 -4 -10 -2 -7 7 3 8 17
13 32 12 23 -2 27 3 32 38 4 21 10 39 14 39 5 0 6 -9 3 -20 -8 -29 31 -27 53
3 16 22 16 21 10 -18 -3 -22 -6 -53 -6 -68 0 -18 -4 -26 -11 -21 -7 4 -9 21
-6 40 3 19 2 34 -3 34 -22 0 -40 -14 -40 -32 0 -11 -10 -28 -22 -38 -23 -19
-23 -19 32 -19 68 0 130 25 130 52 0 11 12 42 27 69 31 56 25 81 -20 86 -20 3
-30 -3 -38 -21 -10 -22 -16 -24 -67 -21 -31 2 -61 0 -66 -5 -6 -5 -27 -11 -48
-15 -34 -6 -37 -5 -43 24 -9 40 -35 54 -64 34 -19 -14 -23 -14 -37 0 -20 21
-31 20 -46 -3z m422 -32 c0 -6 -11 -27 -25 -47 -29 -42 -34 -22 -8 32 15 32
33 40 33 15z m-50 -109 c0 -5 -7 -10 -16 -10 -8 0 -12 5 -9 10 3 6 10 10 16
10 5 0 9 -4 9 -10z"/>
<path d="M747 133 c-12 -12 -7 -33 8 -33 17 0 19 9 7 28 -5 7 -11 9 -15 5z"/>
<path d="M821 91 c-16 -29 -13 -40 9 -34 11 3 20 14 20 24 0 26 -17 33 -29 10z"/>
<path d="M808 29 c-29 -16 -21 -29 17 -29 28 0 35 4 35 20 0 22 -24 26 -52 9z"/>
</g>
</svg>
